# This file uses centimeters as units for non-parametric coordinates.

mtllib pm_door_lo.mtl
g default
v -88.808393 -0.038759 -0.352607
v -75.675985 -0.038759 -0.352607
v -88.665199 10.981927 -0.352607
v -75.897943 10.834962 -0.352607
v -88.625129 11.203630 -1.720219
v -75.897943 10.834962 -1.720219
v -88.808393 -0.038759 -1.720219
v -75.675985 -0.038759 -1.720219
v -78.159253 -0.038759 -0.352607
v -78.159253 -0.038759 -1.720219
v -78.159253 13.133747 -1.720219
v -78.159253 13.133747 -0.352607
v -80.801338 -0.038759 -0.352607
v -80.801338 -0.038759 -1.720219
v -80.801338 14.137874 -1.720219
v -80.801338 14.137874 -0.352607
v -83.271825 -0.038759 -0.352607
v -83.271825 -0.038759 -1.720219
v -83.271825 14.178385 -1.720219
v -83.271825 14.178385 -0.352607
v -85.834715 -0.038759 -0.352607
v -85.834715 -0.038759 -1.720219
v -85.834715 13.251323 -1.720219
v -85.834715 13.437860 -0.352607
v -78.159253 -0.038759 -1.720219
v -78.159253 13.133747 -1.720219
v -75.897943 10.834962 -1.720219
v -75.675985 -0.038759 -1.720219
v -80.801338 9.123321 -1.720219
v -78.159253 9.137401 -1.720219
v -75.839894 9.134878 -1.720219
v -75.839894 9.134878 -1.720219
v -75.839894 9.134878 -0.352607
v -78.159253 10.832494 -0.352607
v -80.801338 11.574026 -0.352607
v -83.271825 11.603941 -0.352607
v -85.834715 11.057077 -0.352607
v -88.702640 9.243409 -0.352607
v -88.673058 9.121063 -1.720219
v -85.834715 9.117740 -1.720219
v -83.271825 9.124652 -1.720219
v -80.801338 10.669676 -0.352607
v -78.159253 9.976878 -0.352607
v -75.829123 8.390828 -0.352607
v -75.829123 8.390828 -1.720219
v -75.829123 8.390828 -1.720219
v -78.159253 8.385339 -1.720219
v -80.801338 8.376337 -1.720219
v -83.271825 8.370484 -1.720219
v -85.834715 8.362925 -1.720219
v -88.681950 8.359119 -1.720219
v -88.709591 8.492226 -0.352607
v -85.834715 10.186701 -0.352607
v -83.271825 10.697627 -0.352607
v -80.801338 4.532057 -1.720219
v -78.159253 4.541956 -1.720219
v -75.812629 4.539377 -1.720219
v -75.812629 4.539377 -1.720219
v -75.812629 4.539377 -0.352607
v -78.159253 5.954582 -0.352607
v -80.801338 6.572754 -0.352607
v -83.271825 6.597694 -0.352607
v -85.834715 6.141804 -0.352607
v -88.720236 4.629854 -0.352607
v -88.695570 4.514832 -1.720219
v -85.834715 4.520100 -1.720219
v -83.271825 4.518750 -1.720219
v -80.801338 3.804614 -1.720219
v -78.159253 3.838120 -1.720219
v -75.798608 3.852397 -1.720219
v -75.798608 3.852397 -1.720219
v -75.798608 3.852397 -0.352607
v -78.159253 5.122369 -0.352607
v -80.801338 5.677103 -0.352607
v -83.271825 5.699484 -0.352607
v -85.834715 5.290378 -0.352607
v -88.729285 3.933589 -0.352607
v -88.707149 3.804561 -1.720219
v -85.834715 3.768157 -1.720219
v -83.271825 3.794242 -1.720219
v -78.159253 8.385339 -2.339017
v -78.159253 9.137401 -2.339017
v -75.839894 9.134878 -2.339017
v -75.829123 8.390828 -2.339017
v -80.801338 8.376337 -2.339017
v -80.801338 9.123321 -2.339017
v -83.271825 8.370484 -2.339017
v -83.271825 9.124652 -2.339017
v -85.834715 8.362925 -2.339017
v -85.834715 9.117740 -2.339017
v -88.673058 9.121063 -2.339017
v -88.681950 8.359119 -2.339017
v -80.801338 3.804614 -2.339017
v -80.801338 4.532057 -2.339017
v -78.159253 4.541956 -2.339017
v -78.159253 3.838120 -2.339017
v -75.798608 3.852397 -2.339017
v -75.812629 4.539377 -2.339017
v -88.695570 4.514832 -2.339017
v -85.834715 4.520100 -2.339017
v -85.834715 3.768157 -2.339017
v -88.707149 3.804561 -2.339017
v -83.271825 3.794242 -2.339017
v -83.271825 4.518750 -2.339017
vt 0.375000 0.000000
vt 0.625000 0.000000
vt 0.375000 0.250000
vt 0.625000 0.250000
vt 0.375000 0.500000
vt 0.625000 0.500000
vt 0.375000 0.750000
vt 0.625000 0.750000
vt 0.375000 1.000000
vt 0.625000 1.000000
vt 0.875000 0.000000
vt 0.875000 0.250000
vt 0.125000 0.000000
vt 0.125000 0.250000
vt 0.577726 0.000000
vt 0.577726 1.000000
vt 0.577726 0.750000
vt 0.577726 0.500000
vt 0.577726 0.250000
vt 0.527429 0.000000
vt 0.527429 1.000000
vt 0.527429 0.750000
vt 0.527429 0.500000
vt 0.527429 0.250000
vt 0.480399 0.000000
vt 0.480399 1.000000
vt 0.480399 0.750000
vt 0.480399 0.500000
vt 0.480399 0.250000
vt 0.431610 0.000000
vt 0.431610 1.000000
vt 0.431610 0.750000
vt 0.431610 0.500000
vt 0.431610 0.250000
vt 0.577726 0.750000
vt 0.577726 0.500000
vt 0.625000 0.500000
vt 0.625000 0.750000
vt 0.527429 0.565379
vt 0.577726 0.565379
vt 0.625000 0.565379
vt 0.625000 0.565379
vt 0.875000 0.184621
vt 0.625000 0.184621
vt 0.577726 0.184621
vt 0.527429 0.184621
vt 0.480399 0.184621
vt 0.431610 0.184621
vt 0.375000 0.184621
vt 0.125000 0.184621
vt 0.375000 0.565379
vt 0.431610 0.565379
vt 0.480399 0.565379
vt 0.527429 0.172488
vt 0.577726 0.172488
vt 0.625000 0.172488
vt 0.625000 0.577512
vt 0.875000 0.172488
vt 0.625000 0.577512
vt 0.577726 0.577512
vt 0.527429 0.577512
vt 0.480399 0.577512
vt 0.431610 0.577512
vt 0.125000 0.172488
vt 0.375000 0.577512
vt 0.375000 0.172488
vt 0.431610 0.172488
vt 0.480399 0.172488
vt 0.527429 0.596092
vt 0.577726 0.596092
vt 0.625000 0.596092
vt 0.625000 0.596092
vt 0.875000 0.153908
vt 0.625000 0.153908
vt 0.577726 0.153908
vt 0.527429 0.153908
vt 0.480399 0.153908
vt 0.431610 0.153908
vt 0.375000 0.153908
vt 0.125000 0.153908
vt 0.375000 0.596092
vt 0.431610 0.596092
vt 0.480399 0.596092
vt 0.527429 0.611887
vt 0.577726 0.611887
vt 0.625000 0.611887
vt 0.625000 0.611887
vt 0.875000 0.138113
vt 0.625000 0.138113
vt 0.577726 0.138113
vt 0.527429 0.138113
vt 0.480399 0.138113
vt 0.431610 0.138113
vt 0.375000 0.138113
vt 0.125000 0.138113
vt 0.375000 0.611887
vt 0.431610 0.611887
vt 0.480399 0.611887
vt 0.577726 0.565379
vt 0.625000 0.565379
vt 0.625000 0.577512
vt 0.577726 0.577512
vt 0.527429 0.565379
vt 0.527429 0.577512
vt 0.480399 0.565379
vt 0.480399 0.577512
vt 0.431610 0.565379
vt 0.431610 0.577512
vt 0.375000 0.565379
vt 0.375000 0.577512
vt 0.527429 0.596092
vt 0.577726 0.596092
vt 0.577726 0.611887
vt 0.527429 0.611887
vt 0.625000 0.611887
vt 0.625000 0.596092
vt 0.375000 0.596092
vt 0.431610 0.596092
vt 0.431610 0.611887
vt 0.375000 0.611887
vt 0.480399 0.611887
vt 0.480399 0.596092
vn 0.000000 0.000000 1.000000
vn 0.000000 0.000000 1.000000
vn 0.000000 0.000000 1.000000
vn 0.000000 0.000000 1.000000
vn 0.558673 0.829388 0.000000
vn 0.558673 0.829388 0.000000
vn 0.712894 0.701272 0.000000
vn 0.712894 0.701272 0.000000
vn 0.000000 0.000000 -1.000000
vn 0.000000 0.000000 -1.000000
vn 0.000000 0.000000 -1.000000
vn 0.000000 0.000000 -1.000000
vn 0.000000 -1.000000 0.000000
vn 0.000000 -1.000000 0.000000
vn 0.000000 -1.000000 0.000000
vn 0.000000 -1.000000 0.000000
vn 0.999982 0.005933 0.000000
vn 0.999982 0.005933 0.000000
vn 0.999604 0.028146 0.000000
vn 0.999604 0.028146 0.000000
vn -0.999818 0.004843 -0.018437
vn -0.999794 0.004364 -0.019819
vn -0.999535 0.018998 -0.023868
vn -0.999613 0.018100 -0.021117
vn 0.000000 -1.000000 0.000000
vn 0.000000 -1.000000 0.000000
vn -0.000000 0.000000 -1.000000
vn -0.000000 0.000000 -1.000000
vn -0.000000 0.000000 -1.000000
vn -0.000000 0.000000 -1.000000
vn 0.200191 0.979757 0.000000
vn 0.200191 0.979757 0.000000
vn 0.000000 0.000000 1.000000
vn 0.000000 0.000000 1.000000
vn 0.000000 -1.000000 0.000000
vn 0.000000 -1.000000 0.000000
vn 0.000000 0.000000 -1.000000
vn 0.000000 0.000000 -1.000000
vn -0.155591 0.987226 -0.034281
vn -0.155591 0.987226 -0.034281
vn 0.000000 0.000000 1.000000
vn 0.000000 0.000000 1.000000
vn 0.000000 -1.000000 0.000000
vn 0.000000 -1.000000 0.000000
vn -0.000000 0.000000 -1.000000
vn -0.000000 0.000000 -1.000000
vn -0.498614 0.866387 -0.027515
vn -0.496962 0.867325 -0.027864
vn 0.000000 0.000000 1.000000
vn 0.000000 0.000000 1.000000
vn 0.000000 -1.000000 0.000000
vn 0.000000 -1.000000 0.000000
vn -0.000000 0.000000 -1.000000
vn -0.000000 0.000000 -1.000000
vn -0.625279 0.780400 0.000873
vn -0.625279 0.780400 0.000873
vn 0.000000 0.000000 1.000000
vn 0.000000 0.000000 1.000000
vn 0.000000 0.000000 0.000000
vn 0.000000 0.000000 0.000000
vn 0.000000 0.000000 0.000000
vn 0.000000 0.000000 0.000000
vn 0.000000 0.000000 0.000000
vn 0.000000 0.000000 0.000000
vn 0.000000 0.000000 0.000000
vn 0.000000 0.000000 0.000000
vn 0.000000 0.000000 0.000000
vn 0.000000 0.000000 0.000000
vn 0.000000 0.000000 0.000000
vn 0.000000 0.000000 0.000000
vn 0.000000 0.000000 -1.000000
vn 0.000000 0.000000 -1.000000
vn 0.000000 0.000000 -1.000000
vn 0.000000 0.000000 -1.000000
vn 0.000000 0.000000 0.000000
vn 0.000000 0.000000 0.000000
vn 0.000000 0.000000 0.000000
vn -0.000000 0.000000 -1.000000
vn -0.000000 0.000000 -1.000000
vn -0.000000 0.000000 -1.000000
vn -0.000000 0.000000 -1.000000
vn 0.000000 0.000000 0.000000
vn 0.000000 0.000000 0.000000
vn 0.000000 0.000000 0.000000
vn 0.000000 0.000000 0.000000
vn 0.999418 0.034125 0.000000
vn 0.999418 0.034125 0.000000
vn 0.000000 0.000000 1.000000
vn 0.000000 0.000000 1.000000
vn 0.000000 0.000000 1.000000
vn 0.000000 0.000000 1.000000
vn 0.000000 0.000000 1.000000
vn 0.000000 0.000000 1.000000
vn -0.999447 0.022330 -0.024640
vn -0.999447 0.022330 -0.024640
vn 0.000000 0.000000 -1.000000
vn -0.000000 0.000000 -1.000000
vn -0.000000 0.000000 -1.000000
vn 0.000000 0.000000 -1.000000
vn -0.000000 0.000000 -1.000000
vn -0.000000 0.000000 -1.000000
vn -0.000000 0.000000 1.000000
vn -0.000000 0.000000 1.000000
vn 0.000000 0.000000 1.000000
vn 0.000000 0.000000 1.000000
vn 0.000000 0.000000 1.000000
vn 0.000000 0.000000 1.000000
vn 0.999504 0.031498 0.000000
vn 0.999504 0.031498 0.000000
vn 0.999555 0.029834 0.000000
vn 0.999555 0.029834 0.000000
vn 0.000000 0.000000 0.000000
vn 0.000000 0.000000 0.000000
vn 0.000000 0.000000 0.000000
vn 0.000000 0.000000 0.000000
vn 0.000000 0.000000 -1.000000
vn 0.000000 0.000000 -1.000000
vn 0.000000 0.000000 -1.000000
vn 0.000000 0.000000 -1.000000
vn 0.000000 0.000000 0.000000
vn 0.000000 0.000000 0.000000
vn 0.000000 0.000000 0.000000
vn 0.000000 0.000000 -1.000000
vn 0.000000 0.000000 -1.000000
vn 0.000000 0.000000 -1.000000
vn 0.000000 0.000000 -1.000000
vn 0.000000 0.000000 -1.000000
vn 0.000000 0.000000 -1.000000
vn 0.000000 0.000000 -1.000000
vn 0.000000 0.000000 -1.000000
vn 0.000000 0.000000 -1.000000
vn 0.000000 0.000000 -1.000000
vn -0.999692 0.023069 -0.009179
vn -0.999692 0.023069 -0.009179
vn -0.999707 0.021771 -0.010605
vn -0.999721 0.021445 -0.009885
vn 0.000000 0.000000 1.000000
vn 0.000000 0.000000 1.000000
vn 0.000000 0.000000 1.000000
vn 0.000000 0.000000 1.000000
vn -0.000000 0.000000 1.000000
vn -0.000000 0.000000 1.000000
vn -0.000000 0.000000 -1.000000
vn -0.000000 0.000000 -1.000000
vn -0.000000 0.000000 -1.000000
vn -0.000000 0.000000 -1.000000
vn 0.000000 0.000000 -1.000000
vn 0.000000 0.000000 -1.000000
vn 0.000000 0.000000 -1.000000
vn 0.000000 0.000000 -1.000000
vn 0.000000 0.000000 0.000000
vn 0.000000 0.000000 0.000000
vn 0.000000 0.000000 0.000000
vn 0.000000 0.000000 0.000000
vn 0.999977 0.006724 0.000000
vn 0.999977 0.006724 0.000000
vn 0.000000 0.000000 1.000000
vn 0.000000 0.000000 1.000000
vn 0.000000 0.000000 1.000000
vn 0.000000 0.000000 1.000000
vn 0.000000 0.000000 1.000000
vn 0.000000 0.000000 1.000000
vn -0.999822 0.005696 -0.017978
vn -0.999803 0.004906 -0.019254
vn 0.000000 0.000000 -1.000000
vn 0.000000 0.000000 -1.000000
vn 0.000000 0.000000 -1.000000
vn 0.000000 0.000000 -1.000000
vn 0.000000 0.000000 -1.000000
vn 0.000000 0.000000 -1.000000
vn 0.000000 0.000000 -1.000000
vn 0.000000 0.000000 -1.000000
vn 0.000000 0.000000 -1.000000
vn 0.000000 0.000000 -1.000000
vn 0.000000 0.000000 -1.000000
vn 0.000000 0.000000 -1.000000
vn 0.000000 0.000000 -1.000000
vn 0.000000 0.000000 -1.000000
vn 0.000000 0.000000 0.000000
vn 0.000000 0.000000 0.000000
vn 0.000000 0.000000 0.000000
vn 0.000000 0.000000 0.000000
vn 0.000000 0.000000 -1.000000
vn 0.000000 0.000000 -1.000000
vn 0.000000 0.000000 -1.000000
vn 0.000000 0.000000 -1.000000
vn 0.000000 0.000000 -1.000000
vn 0.000000 0.000000 -1.000000
vn -0.002329 0.999997 0.000000
vn 0.001088 0.999999 0.000000
vn 0.001088 0.999999 0.000000
vn -0.002329 0.999997 0.000000
vn 0.999895 0.014474 0.000000
vn 0.999895 0.014474 0.000000
vn 0.999895 0.014474 0.000000
vn 0.999895 0.014474 0.000000
vn 0.002356 -0.999997 0.000000
vn 0.002914 -0.999996 0.000000
vn 0.002914 -0.999996 0.000000
vn 0.002356 -0.999997 0.000000
vn -0.002494 0.999997 0.000000
vn -0.002494 0.999997 0.000000
vn 0.002906 -0.999996 0.000000
vn 0.002906 -0.999996 0.000000
vn -0.001109 0.999999 0.000000
vn -0.001109 0.999999 0.000000
vn 0.002665 -0.999996 0.000000
vn 0.002665 -0.999996 0.000000
vn -0.000665 1.000000 0.000000
vn -0.000665 1.000000 0.000000
vn 0.002101 -0.999998 0.000000
vn 0.002101 -0.999998 0.000000
vn 0.001171 0.999999 0.000000
vn 0.001171 0.999999 0.000000
vn 0.001337 -0.999999 0.000000
vn 0.001337 -0.999999 0.000000
vn -0.999932 0.011669 0.000000
vn -0.999932 0.011669 0.000000
vn -0.004539 0.999990 0.000000
vn -0.001467 0.999999 0.000000
vn -0.001467 0.999999 0.000000
vn -0.004539 0.999990 0.000000
vn 0.009551 -0.999954 0.000000
vn 0.008582 -0.999963 0.000000
vn 0.008582 -0.999963 0.000000
vn 0.009551 -0.999954 0.000000
vn 0.006048 -0.999982 0.000000
vn 0.006048 -0.999982 0.000000
vn 0.001099 0.999999 0.000000
vn 0.001099 0.999999 0.000000
vn 0.999792 0.020405 0.000000
vn 0.999792 0.020405 0.000000
vn 0.999792 0.020405 0.000000
vn 0.999792 0.020405 0.000000
vn -0.001841 0.999998 0.000000
vn -0.000722 1.000000 0.000000
vn -0.000722 1.000000 0.000000
vn -0.001841 0.999998 0.000000
vn -0.001899 -0.999998 0.000000
vn -0.012672 -0.999920 0.000000
vn -0.012672 -0.999920 0.000000
vn -0.001899 -0.999998 0.000000
vn -0.999867 0.016299 0.000000
vn -0.999867 0.016299 0.000000
vn 0.007243 -0.999974 0.000000
vn 0.007243 -0.999974 0.000000
vn -0.002376 0.999997 0.000000
vn -0.002376 0.999997 0.000000
s 1
g pCube13
usemtl initialShadingGroup
f 34/45/1 43/55/2 44/56/3 33/44/4
s 2
f 11/18/5 12/19/6 4/4/7 6/6/8
s off
f 81/102/9 82/99/10 83/100/11 84/101/12
s 3
f 9/16/13 10/17/14 8/8/15 2/10/16
s 4
f 44/56/17 45/58/18 32/43/19 33/44/20
s 5
f 51/64/21 52/66/22 38/49/23 39/50/24
s 3
f 13/21/25 14/22/26 10/17/14 9/16/13
s 6
f 85/104/27 86/103/28 82/99/29 81/102/30
s 2
f 15/23/31 16/24/32 12/19/6 11/18/5
s 1
f 35/46/33 42/54/34 43/55/2 34/45/1
s 3
f 17/26/35 18/27/36 14/22/26 13/21/25
s 6
f 87/106/37 88/105/38 86/103/28 85/104/27
s 2
f 19/28/39 20/29/40 16/24/32 15/23/31
s 1
f 36/47/41 54/68/42 42/54/34 35/46/33
s 3
f 21/31/43 22/32/44 18/27/36 17/26/35
s 6
f 89/108/45 90/107/46 88/105/38 87/106/37
s 2
f 23/33/47 24/34/48 20/29/40 19/28/39
s 1
f 37/48/49 53/67/50 54/68/42 36/47/41
s 3
f 7/7/51 22/32/44 21/31/43 1/9/52
s 6
f 91/109/53 90/107/46 89/108/45 92/110/54
s 2
f 3/3/55 24/34/48 23/33/47 5/5/56
s 1
f 52/66/57 53/67/50 37/48/49 38/49/58
s off
f 11/18/59 6/6/60 27/37/61 26/36/62
f 32/42/63 45/57/64 46/59/65 31/41/66
f 8/8/67 10/17/68 25/35/69 28/38/70
s 7
f 29/39/71 15/23/72 11/18/73 30/40/74
s off
f 30/40/75 11/18/76 26/36/77
f 31/41/78 30/40/79 26/36/80 27/37/81
f 6/6/82 32/42/83 31/41/84 27/37/85
s 4
f 33/44/20 32/43/19 6/12/86 4/4/87
s 1
f 12/19/88 34/45/1 33/44/4 4/4/89
f 16/24/90 35/46/33 34/45/1 12/19/88
f 20/29/91 36/47/41 35/46/33 16/24/90
f 24/34/92 37/48/49 36/47/41 20/29/91
f 38/49/58 37/48/49 24/34/92 3/3/93
s 5
f 39/50/24 38/49/23 3/3/94 5/14/95
s 7
f 5/5/96 23/33/97 40/52/98 39/51/99
f 41/53/100 40/52/98 23/33/97 19/28/101
f 29/39/71 41/53/100 19/28/101 15/23/72
s 1
f 74/91/102 13/20/103 9/15/104 73/90/105
f 72/89/106 73/90/105 9/15/104 2/2/107
s 4
f 2/2/108 8/11/109 71/88/110 72/89/111
s off
f 70/86/112 71/87/113 8/8/114 28/38/115
f 25/35/116 69/85/117 70/86/118 28/38/119
f 10/17/120 69/85/121 25/35/122
s 11
f 14/22/123 68/84/124 69/85/125 10/17/126
f 18/27/127 80/98/128 68/84/124 14/22/123
f 22/32/129 79/97/130 80/98/128 18/27/127
f 78/96/131 79/97/130 22/32/129 7/7/132
s 5
f 7/13/133 1/1/134 77/94/135 78/95/136
s 1
f 1/1/137 21/30/138 76/93/139 77/94/140
f 75/92/141 76/93/139 21/30/138 17/25/142
f 74/91/102 75/92/141 17/25/142 13/20/103
s 14
f 55/69/143 48/61/144 47/60/145 56/70/146
s off
f 57/71/147 56/70/148 47/60/149 46/59/150
f 46/59/151 45/57/152 58/72/153 57/71/154
s 4
f 59/74/155 58/73/156 45/58/18 44/56/17
s 1
f 44/56/3 43/55/2 60/75/157 59/74/158
f 42/54/34 61/76/159 60/75/157 43/55/2
f 42/54/34 54/68/42 62/77/160 61/76/159
f 54/68/42 53/67/50 63/78/161 62/77/160
f 64/79/162 63/78/161 53/67/50 52/66/57
s 5
f 65/80/163 64/79/164 52/66/22 51/64/21
s 14
f 51/65/165 50/63/166 66/82/167 65/81/168
f 67/83/169 66/82/167 50/63/166 49/62/170
f 55/69/143 67/83/169 49/62/170 48/61/144
s 16
f 93/114/171 94/111/172 95/112/173 96/113/174
s off
f 97/115/175 96/113/176 95/112/177 98/116/178
f 57/71/179 58/72/180 71/87/181 70/86/182
s 4
f 72/89/111 71/88/110 58/73/156 59/74/155
s 1
f 59/74/158 60/75/157 73/90/105 72/89/106
f 61/76/159 74/91/102 73/90/105 60/75/157
f 61/76/159 62/77/160 75/92/141 74/91/102
f 62/77/160 63/78/161 76/93/139 75/92/141
f 77/94/140 76/93/139 63/78/161 64/79/162
s 5
f 78/95/136 77/94/135 64/79/164 65/80/163
s 16
f 99/117/183 100/118/184 101/119/185 102/120/186
f 103/121/187 101/119/185 100/118/184 104/122/188
f 93/114/171 103/121/187 104/122/188 94/111/172
s 18
f 30/40/189 31/41/190 83/100/191 82/99/192
s off
f 31/41/193 46/59/194 84/101/195 83/100/196
s 19
f 46/59/197 47/60/198 81/102/199 84/101/200
s 18
f 29/39/201 30/40/189 82/99/192 86/103/202
s 19
f 47/60/198 48/61/203 85/104/204 81/102/199
s 18
f 41/53/205 29/39/201 86/103/202 88/105/206
s 19
f 48/61/203 49/62/207 87/106/208 85/104/204
s 18
f 40/52/209 41/53/205 88/105/206 90/107/210
s 19
f 49/62/207 50/63/211 89/108/212 87/106/208
s 18
f 39/51/213 40/52/209 90/107/210 91/109/214
s 19
f 50/63/211 51/65/215 92/110/216 89/108/212
s 5
f 51/65/21 39/51/24 91/109/217 92/110/218
s 20
f 55/69/219 56/70/220 95/112/221 94/111/222
s 21
f 69/85/223 68/84/224 93/114/225 96/113/226
f 70/86/227 69/85/223 96/113/226 97/115/228
s 20
f 56/70/220 57/71/229 98/116/230 95/112/221
s off
f 57/71/231 70/86/232 97/115/233 98/116/234
s 20
f 65/81/235 66/82/236 100/118/237 99/117/238
s 21
f 79/97/239 78/96/240 102/120/241 101/119/242
s 5
f 78/96/136 65/81/163 99/117/243 102/120/244
s 21
f 80/98/245 79/97/239 101/119/242 103/121/246
s 20
f 66/82/236 67/83/247 104/122/248 100/118/237
s 21
f 68/84/224 80/98/245 103/121/246 93/114/225
s 20
f 67/83/247 55/69/219 94/111/222 104/122/248
